# xmcd
#
# Track frame offsets:
#	150
#	18675
#	44183
#	68333
#	86483
#	106508
#	123158
#	141083
#	162233
#	178645
#	196870
#	219527
#	237603
#
# Disc length: 3633 seconds
#
# Revision: 1
# Processed by: cddbd v1.5.2PL0 Copyright (c) Steve Scherf et al.
# Submitted via: audiograbber 1.83.01
#
DISCID=b00e2f0d
DTITLE=Colorado Five - Der 6. Streich - Geschichten, Mythen, Moritaten
DYEAR=2017
DGENRE=Country
TTITLE0=Schwarz Rot Gold
TTITLE1=Anfassen verboten
TTITLE2=Der Traum
TTITLE3=Warme Tränen
TTITLE4=Egal
TTITLE5=Der Kuss
TTITLE6=Charlie Dawn
TTITLE7=Alles für den Arsch
TTITLE8=Über den Bergen
TTITLE9=Cowboyblut
TTITLE10=Der böse Nachbar Blues
TTITLE11=Welch ein Gefühl
TTITLE12=Tschadahutschie - Hillbilly Rock
EXTD=
EXTT0=
EXTT1=
EXTT2=
EXTT3=
EXTT4=
EXTT5=
EXTT6=
EXTT7=
EXTT8=
EXTT9=
EXTT10=
EXTT11=
EXTT12=
PLAYORDER=
